<svg xmlns="http://www.w3.org/2000/svg" width="1000" height="990" viewBox="0 0 1000 990" role="img" aria-labelledby="title desc" xml:space="preserve">
  <title id="title">skills</title>
  <desc id="desc">languages: typescript, javascript, python, sql, swift, bash, html / css. frontend: next.js app router, react, react native / expo, tailwind, shadcn/ui, radix, framer motion, zustand, tanstack query, react hook form, zod, three.js, vite. backend: node, bun, hono, express, fastapi, trpc, prisma, drizzle, supabase, postgres, pgvector, redis, graphql, websockets, edge functions, queues / cron. infra: aws (s3, lambda, ec2), vercel, cloudflare workers, docker, github actions, stripe, sentry, posthog, resend, playwright. ai / ml: anthropic sdk, openai sdk, vercel ai sdk, langchain, langgraph, llamaindex, mcp servers, tool calling, structured outputs, agent orchestration, multi-agent systems, computer use / browser agents, agentic coding (claude code), rag pipelines, hybrid search (bm25 + vectors), reranking, chunking strategies, embeddings, pgvector / pinecone, prompt caching, context engineering, evals (promptfoo, braintrust), llm-as-judge, guardrails, observability (langfuse), model routing, cost / latency tuning, document ai (pdf, ocr, layout), whisper, on-device inference (core ml, llama.cpp), pytorch, hugging face transformers, lora fine-tuning. data: pandas, numpy, jupyter, openpyxl / excel automation, pdfplumber, scraping (playwright, puppeteer), sql analytics. design: product design, design systems, figma, brand identity, motion, prototyping, ux research, figma → code. founder: 0 → 1, gtm, discovery calls, pitching, hiring, fundraising, short-form content</desc>
  <rect width="1000" height="990" rx="14" fill="#09090b"/>
  <rect x=".5" y=".5" width="999" height="989" rx="13.5" fill="none" stroke="#ffffff" stroke-opacity=".08"/>
  <g font-family="ui-monospace, SFMono-Regular, 'SF Mono', Menlo, Consolas, 'Liberation Mono', monospace" font-size="14">
    <text x="48" y="52"><tspan fill="#52525b">z1ros ~ %</tspan><tspan fill="#e4e4e7"> skills --all</tspan></text>
    <text x="952" y="52" fill="#52525b" font-size="12" text-anchor="end">101 tags · ai/ml highlighted</text>
    <text x="48" y="114" fill="#52525b" font-size="12">languages</text><rect x="172" y="96" width="105" height="28" rx="6" fill="#18181b" stroke="#27272a"/><text x="224.5" y="114" fill="#e4e4e7" font-size="13" text-anchor="middle">typescript</text><rect x="285" y="96" width="105" height="28" rx="6" fill="#18181b" stroke="#27272a"/><text x="337.5" y="114" fill="#e4e4e7" font-size="13" text-anchor="middle">javascript</text><rect x="398" y="96" width="73" height="28" rx="6" fill="#18181b" stroke="#27272a"/><text x="434.5" y="114" fill="#e4e4e7" font-size="13" text-anchor="middle">python</text><rect x="479" y="96" width="49" height="28" rx="6" fill="#18181b" stroke="#27272a"/><text x="503.5" y="114" fill="#e4e4e7" font-size="13" text-anchor="middle">sql</text><rect x="536" y="96" width="65" height="28" rx="6" fill="#18181b" stroke="#27272a"/><text x="568.5" y="114" fill="#e4e4e7" font-size="13" text-anchor="middle">swift</text><rect x="609" y="96" width="57" height="28" rx="6" fill="#18181b" stroke="#27272a"/><text x="637.5" y="114" fill="#e4e4e7" font-size="13" text-anchor="middle">bash</text><rect x="674" y="96" width="105" height="28" rx="6" fill="#18181b" stroke="#27272a"/><text x="726.5" y="114" fill="#e4e4e7" font-size="13" text-anchor="middle">html / css</text><text x="48" y="164" fill="#52525b" font-size="12">frontend</text><rect x="172" y="146" width="170" height="28" rx="6" fill="#18181b" stroke="#27272a"/><text x="257" y="164" fill="#e4e4e7" font-size="13" text-anchor="middle">next.js app router</text><rect x="350" y="146" width="65" height="28" rx="6" fill="#18181b" stroke="#27272a"/><text x="382.5" y="164" fill="#e4e4e7" font-size="13" text-anchor="middle">react</text><rect x="423" y="146" width="178" height="28" rx="6" fill="#18181b" stroke="#27272a"/><text x="512" y="164" fill="#e4e4e7" font-size="13" text-anchor="middle">react native / expo</text><rect x="609" y="146" width="89" height="28" rx="6" fill="#18181b" stroke="#27272a"/><text x="653.5" y="164" fill="#e4e4e7" font-size="13" text-anchor="middle">tailwind</text><rect x="706" y="146" width="97" height="28" rx="6" fill="#18181b" stroke="#27272a"/><text x="754.5" y="164" fill="#e4e4e7" font-size="13" text-anchor="middle">shadcn/ui</text><rect x="811" y="146" width="65" height="28" rx="6" fill="#18181b" stroke="#27272a"/><text x="843.5" y="164" fill="#e4e4e7" font-size="13" text-anchor="middle">radix</text><rect x="172" y="182" width="129" height="28" rx="6" fill="#18181b" stroke="#27272a"/><text x="236.5" y="200" fill="#e4e4e7" font-size="13" text-anchor="middle">framer motion</text><rect x="309" y="182" width="81" height="28" rx="6" fill="#18181b" stroke="#27272a"/><text x="349.5" y="200" fill="#e4e4e7" font-size="13" text-anchor="middle">zustand</text><rect x="398" y="182" width="137" height="28" rx="6" fill="#18181b" stroke="#27272a"/><text x="466.5" y="200" fill="#e4e4e7" font-size="13" text-anchor="middle">tanstack query</text><rect x="543" y="182" width="145" height="28" rx="6" fill="#18181b" stroke="#27272a"/><text x="615.5" y="200" fill="#e4e4e7" font-size="13" text-anchor="middle">react hook form</text><rect x="696" y="182" width="49" height="28" rx="6" fill="#18181b" stroke="#27272a"/><text x="720.5" y="200" fill="#e4e4e7" font-size="13" text-anchor="middle">zod</text><rect x="753" y="182" width="89" height="28" rx="6" fill="#18181b" stroke="#27272a"/><text x="797.5" y="200" fill="#e4e4e7" font-size="13" text-anchor="middle">three.js</text><rect x="850" y="182" width="57" height="28" rx="6" fill="#18181b" stroke="#27272a"/><text x="878.5" y="200" fill="#e4e4e7" font-size="13" text-anchor="middle">vite</text><text x="48" y="250" fill="#52525b" font-size="12">backend</text><rect x="172" y="232" width="57" height="28" rx="6" fill="#18181b" stroke="#27272a"/><text x="200.5" y="250" fill="#e4e4e7" font-size="13" text-anchor="middle">node</text><rect x="237" y="232" width="49" height="28" rx="6" fill="#18181b" stroke="#27272a"/><text x="261.5" y="250" fill="#e4e4e7" font-size="13" text-anchor="middle">bun</text><rect x="294" y="232" width="57" height="28" rx="6" fill="#18181b" stroke="#27272a"/><text x="322.5" y="250" fill="#e4e4e7" font-size="13" text-anchor="middle">hono</text><rect x="359" y="232" width="81" height="28" rx="6" fill="#18181b" stroke="#27272a"/><text x="399.5" y="250" fill="#e4e4e7" font-size="13" text-anchor="middle">express</text><rect x="448" y="232" width="81" height="28" rx="6" fill="#18181b" stroke="#27272a"/><text x="488.5" y="250" fill="#e4e4e7" font-size="13" text-anchor="middle">fastapi</text><rect x="537" y="232" width="57" height="28" rx="6" fill="#18181b" stroke="#27272a"/><text x="565.5" y="250" fill="#e4e4e7" font-size="13" text-anchor="middle">trpc</text><rect x="602" y="232" width="73" height="28" rx="6" fill="#18181b" stroke="#27272a"/><text x="638.5" y="250" fill="#e4e4e7" font-size="13" text-anchor="middle">prisma</text><rect x="683" y="232" width="81" height="28" rx="6" fill="#18181b" stroke="#27272a"/><text x="723.5" y="250" fill="#e4e4e7" font-size="13" text-anchor="middle">drizzle</text><rect x="772" y="232" width="89" height="28" rx="6" fill="#18181b" stroke="#27272a"/><text x="816.5" y="250" fill="#e4e4e7" font-size="13" text-anchor="middle">supabase</text><rect x="172" y="268" width="89" height="28" rx="6" fill="#18181b" stroke="#27272a"/><text x="216.5" y="286" fill="#e4e4e7" font-size="13" text-anchor="middle">postgres</text><rect x="269" y="268" width="89" height="28" rx="6" fill="#18181b" stroke="#27272a"/><text x="313.5" y="286" fill="#e4e4e7" font-size="13" text-anchor="middle">pgvector</text><rect x="366" y="268" width="65" height="28" rx="6" fill="#18181b" stroke="#27272a"/><text x="398.5" y="286" fill="#e4e4e7" font-size="13" text-anchor="middle">redis</text><rect x="439" y="268" width="81" height="28" rx="6" fill="#18181b" stroke="#27272a"/><text x="479.5" y="286" fill="#e4e4e7" font-size="13" text-anchor="middle">graphql</text><rect x="528" y="268" width="105" height="28" rx="6" fill="#18181b" stroke="#27272a"/><text x="580.5" y="286" fill="#e4e4e7" font-size="13" text-anchor="middle">websockets</text><rect x="641" y="268" width="137" height="28" rx="6" fill="#18181b" stroke="#27272a"/><text x="709.5" y="286" fill="#e4e4e7" font-size="13" text-anchor="middle">edge functions</text><rect x="786" y="268" width="129" height="28" rx="6" fill="#18181b" stroke="#27272a"/><text x="850.5" y="286" fill="#e4e4e7" font-size="13" text-anchor="middle">queues / cron</text><text x="48" y="336" fill="#52525b" font-size="12">infra</text><rect x="172" y="318" width="194" height="28" rx="6" fill="#18181b" stroke="#27272a"/><text x="269" y="336" fill="#e4e4e7" font-size="13" text-anchor="middle">aws (s3, lambda, ec2)</text><rect x="374" y="318" width="73" height="28" rx="6" fill="#18181b" stroke="#27272a"/><text x="410.5" y="336" fill="#e4e4e7" font-size="13" text-anchor="middle">vercel</text><rect x="455" y="318" width="170" height="28" rx="6" fill="#18181b" stroke="#27272a"/><text x="540" y="336" fill="#e4e4e7" font-size="13" text-anchor="middle">cloudflare workers</text><rect x="633" y="318" width="73" height="28" rx="6" fill="#18181b" stroke="#27272a"/><text x="669.5" y="336" fill="#e4e4e7" font-size="13" text-anchor="middle">docker</text><rect x="714" y="318" width="137" height="28" rx="6" fill="#18181b" stroke="#27272a"/><text x="782.5" y="336" fill="#e4e4e7" font-size="13" text-anchor="middle">github actions</text><rect x="859" y="318" width="73" height="28" rx="6" fill="#18181b" stroke="#27272a"/><text x="895.5" y="336" fill="#e4e4e7" font-size="13" text-anchor="middle">stripe</text><rect x="172" y="354" width="73" height="28" rx="6" fill="#18181b" stroke="#27272a"/><text x="208.5" y="372" fill="#e4e4e7" font-size="13" text-anchor="middle">sentry</text><rect x="253" y="354" width="81" height="28" rx="6" fill="#18181b" stroke="#27272a"/><text x="293.5" y="372" fill="#e4e4e7" font-size="13" text-anchor="middle">posthog</text><rect x="342" y="354" width="73" height="28" rx="6" fill="#18181b" stroke="#27272a"/><text x="378.5" y="372" fill="#e4e4e7" font-size="13" text-anchor="middle">resend</text><rect x="423" y="354" width="105" height="28" rx="6" fill="#18181b" stroke="#27272a"/><text x="475.5" y="372" fill="#e4e4e7" font-size="13" text-anchor="middle">playwright</text><text x="48" y="422" fill="#52525b" font-size="12">ai / ml</text><rect x="172" y="404" width="129" height="28" rx="6" fill="#1a1533" stroke="#4c3d8f"/><text x="236.5" y="422" fill="#c4b5fd" font-size="13" text-anchor="middle">anthropic sdk</text><rect x="309" y="404" width="105" height="28" rx="6" fill="#1a1533" stroke="#4c3d8f"/><text x="361.5" y="422" fill="#c4b5fd" font-size="13" text-anchor="middle">openai sdk</text><rect x="422" y="404" width="129" height="28" rx="6" fill="#1a1533" stroke="#4c3d8f"/><text x="486.5" y="422" fill="#c4b5fd" font-size="13" text-anchor="middle">vercel ai sdk</text><rect x="559" y="404" width="97" height="28" rx="6" fill="#1a1533" stroke="#4c3d8f"/><text x="607.5" y="422" fill="#c4b5fd" font-size="13" text-anchor="middle">langchain</text><rect x="664" y="404" width="97" height="28" rx="6" fill="#1a1533" stroke="#4c3d8f"/><text x="712.5" y="422" fill="#c4b5fd" font-size="13" text-anchor="middle">langgraph</text><rect x="769" y="404" width="105" height="28" rx="6" fill="#1a1533" stroke="#4c3d8f"/><text x="821.5" y="422" fill="#c4b5fd" font-size="13" text-anchor="middle">llamaindex</text><rect x="172" y="440" width="113" height="28" rx="6" fill="#1a1533" stroke="#4c3d8f"/><text x="228.5" y="458" fill="#c4b5fd" font-size="13" text-anchor="middle">mcp servers</text><rect x="293" y="440" width="121" height="28" rx="6" fill="#1a1533" stroke="#4c3d8f"/><text x="353.5" y="458" fill="#c4b5fd" font-size="13" text-anchor="middle">tool calling</text><rect x="422" y="440" width="170" height="28" rx="6" fill="#1a1533" stroke="#4c3d8f"/><text x="507" y="458" fill="#c4b5fd" font-size="13" text-anchor="middle">structured outputs</text><rect x="600" y="440" width="178" height="28" rx="6" fill="#1a1533" stroke="#4c3d8f"/><text x="689" y="458" fill="#c4b5fd" font-size="13" text-anchor="middle">agent orchestration</text><rect x="172" y="476" width="178" height="28" rx="6" fill="#1a1533" stroke="#4c3d8f"/><text x="261" y="494" fill="#c4b5fd" font-size="13" text-anchor="middle">multi-agent systems</text><rect x="358" y="476" width="258" height="28" rx="6" fill="#1a1533" stroke="#4c3d8f"/><text x="487" y="494" fill="#c4b5fd" font-size="13" text-anchor="middle">computer use / browser agents</text><rect x="624" y="476" width="250" height="28" rx="6" fill="#1a1533" stroke="#4c3d8f"/><text x="749" y="494" fill="#c4b5fd" font-size="13" text-anchor="middle">agentic coding (claude code)</text><rect x="172" y="512" width="129" height="28" rx="6" fill="#1a1533" stroke="#4c3d8f"/><text x="236.5" y="530" fill="#c4b5fd" font-size="13" text-anchor="middle">rag pipelines</text><rect x="309" y="512" width="266" height="28" rx="6" fill="#1a1533" stroke="#4c3d8f"/><text x="442" y="530" fill="#c4b5fd" font-size="13" text-anchor="middle">hybrid search (bm25 + vectors)</text><rect x="583" y="512" width="97" height="28" rx="6" fill="#1a1533" stroke="#4c3d8f"/><text x="631.5" y="530" fill="#c4b5fd" font-size="13" text-anchor="middle">reranking</text><rect x="688" y="512" width="178" height="28" rx="6" fill="#1a1533" stroke="#4c3d8f"/><text x="777" y="530" fill="#c4b5fd" font-size="13" text-anchor="middle">chunking strategies</text><rect x="172" y="548" width="105" height="28" rx="6" fill="#1a1533" stroke="#4c3d8f"/><text x="224.5" y="566" fill="#c4b5fd" font-size="13" text-anchor="middle">embeddings</text><rect x="285" y="548" width="178" height="28" rx="6" fill="#1a1533" stroke="#4c3d8f"/><text x="374" y="566" fill="#c4b5fd" font-size="13" text-anchor="middle">pgvector / pinecone</text><rect x="471" y="548" width="137" height="28" rx="6" fill="#1a1533" stroke="#4c3d8f"/><text x="539.5" y="566" fill="#c4b5fd" font-size="13" text-anchor="middle">prompt caching</text><rect x="616" y="548" width="178" height="28" rx="6" fill="#1a1533" stroke="#4c3d8f"/><text x="705" y="566" fill="#c4b5fd" font-size="13" text-anchor="middle">context engineering</text><rect x="172" y="584" width="258" height="28" rx="6" fill="#1a1533" stroke="#4c3d8f"/><text x="301" y="602" fill="#c4b5fd" font-size="13" text-anchor="middle">evals (promptfoo, braintrust)</text><rect x="438" y="584" width="121" height="28" rx="6" fill="#1a1533" stroke="#4c3d8f"/><text x="498.5" y="602" fill="#c4b5fd" font-size="13" text-anchor="middle">llm-as-judge</text><rect x="567" y="584" width="105" height="28" rx="6" fill="#1a1533" stroke="#4c3d8f"/><text x="619.5" y="602" fill="#c4b5fd" font-size="13" text-anchor="middle">guardrails</text><rect x="680" y="584" width="218" height="28" rx="6" fill="#1a1533" stroke="#4c3d8f"/><text x="789" y="602" fill="#c4b5fd" font-size="13" text-anchor="middle">observability (langfuse)</text><rect x="172" y="620" width="129" height="28" rx="6" fill="#1a1533" stroke="#4c3d8f"/><text x="236.5" y="638" fill="#c4b5fd" font-size="13" text-anchor="middle">model routing</text><rect x="309" y="620" width="194" height="28" rx="6" fill="#1a1533" stroke="#4c3d8f"/><text x="406" y="638" fill="#c4b5fd" font-size="13" text-anchor="middle">cost / latency tuning</text><rect x="511" y="620" width="266" height="28" rx="6" fill="#1a1533" stroke="#4c3d8f"/><text x="644" y="638" fill="#c4b5fd" font-size="13" text-anchor="middle">document ai (pdf, ocr, layout)</text><rect x="785" y="620" width="81" height="28" rx="6" fill="#1a1533" stroke="#4c3d8f"/><text x="825.5" y="638" fill="#c4b5fd" font-size="13" text-anchor="middle">whisper</text><rect x="172" y="656" width="347" height="28" rx="6" fill="#1a1533" stroke="#4c3d8f"/><text x="345.5" y="674" fill="#c4b5fd" font-size="13" text-anchor="middle">on-device inference (core ml, llama.cpp)</text><rect x="527" y="656" width="81" height="28" rx="6" fill="#1a1533" stroke="#4c3d8f"/><text x="567.5" y="674" fill="#c4b5fd" font-size="13" text-anchor="middle">pytorch</text><rect x="616" y="656" width="226" height="28" rx="6" fill="#1a1533" stroke="#4c3d8f"/><text x="729" y="674" fill="#c4b5fd" font-size="13" text-anchor="middle">hugging face transformers</text><rect x="172" y="692" width="153" height="28" rx="6" fill="#1a1533" stroke="#4c3d8f"/><text x="248.5" y="710" fill="#c4b5fd" font-size="13" text-anchor="middle">lora fine-tuning</text><text x="48" y="760" fill="#52525b" font-size="12">data</text><rect x="172" y="742" width="73" height="28" rx="6" fill="#18181b" stroke="#27272a"/><text x="208.5" y="760" fill="#e4e4e7" font-size="13" text-anchor="middle">pandas</text><rect x="253" y="742" width="65" height="28" rx="6" fill="#18181b" stroke="#27272a"/><text x="285.5" y="760" fill="#e4e4e7" font-size="13" text-anchor="middle">numpy</text><rect x="326" y="742" width="81" height="28" rx="6" fill="#18181b" stroke="#27272a"/><text x="366.5" y="760" fill="#e4e4e7" font-size="13" text-anchor="middle">jupyter</text><rect x="415" y="742" width="242" height="28" rx="6" fill="#18181b" stroke="#27272a"/><text x="536" y="760" fill="#e4e4e7" font-size="13" text-anchor="middle">openpyxl / excel automation</text><rect x="665" y="742" width="105" height="28" rx="6" fill="#18181b" stroke="#27272a"/><text x="717.5" y="760" fill="#e4e4e7" font-size="13" text-anchor="middle">pdfplumber</text><rect x="172" y="778" width="282" height="28" rx="6" fill="#18181b" stroke="#27272a"/><text x="313" y="796" fill="#e4e4e7" font-size="13" text-anchor="middle">scraping (playwright, puppeteer)</text><rect x="462" y="778" width="129" height="28" rx="6" fill="#18181b" stroke="#27272a"/><text x="526.5" y="796" fill="#e4e4e7" font-size="13" text-anchor="middle">sql analytics</text><text x="48" y="846" fill="#52525b" font-size="12">design</text><rect x="172" y="828" width="137" height="28" rx="6" fill="#18181b" stroke="#27272a"/><text x="240.5" y="846" fill="#e4e4e7" font-size="13" text-anchor="middle">product design</text><rect x="317" y="828" width="137" height="28" rx="6" fill="#18181b" stroke="#27272a"/><text x="385.5" y="846" fill="#e4e4e7" font-size="13" text-anchor="middle">design systems</text><rect x="462" y="828" width="65" height="28" rx="6" fill="#18181b" stroke="#27272a"/><text x="494.5" y="846" fill="#e4e4e7" font-size="13" text-anchor="middle">figma</text><rect x="535" y="828" width="137" height="28" rx="6" fill="#18181b" stroke="#27272a"/><text x="603.5" y="846" fill="#e4e4e7" font-size="13" text-anchor="middle">brand identity</text><rect x="680" y="828" width="73" height="28" rx="6" fill="#18181b" stroke="#27272a"/><text x="716.5" y="846" fill="#e4e4e7" font-size="13" text-anchor="middle">motion</text><rect x="761" y="828" width="113" height="28" rx="6" fill="#18181b" stroke="#27272a"/><text x="817.5" y="846" fill="#e4e4e7" font-size="13" text-anchor="middle">prototyping</text><rect x="172" y="864" width="113" height="28" rx="6" fill="#18181b" stroke="#27272a"/><text x="228.5" y="882" fill="#e4e4e7" font-size="13" text-anchor="middle">ux research</text><rect x="293" y="864" width="121" height="28" rx="6" fill="#18181b" stroke="#27272a"/><text x="353.5" y="882" fill="#e4e4e7" font-size="13" text-anchor="middle">figma → code</text><text x="48" y="932" fill="#52525b" font-size="12">founder</text><rect x="172" y="914" width="65" height="28" rx="6" fill="#18181b" stroke="#27272a"/><text x="204.5" y="932" fill="#e4e4e7" font-size="13" text-anchor="middle">0 → 1</text><rect x="245" y="914" width="49" height="28" rx="6" fill="#18181b" stroke="#27272a"/><text x="269.5" y="932" fill="#e4e4e7" font-size="13" text-anchor="middle">gtm</text><rect x="302" y="914" width="145" height="28" rx="6" fill="#18181b" stroke="#27272a"/><text x="374.5" y="932" fill="#e4e4e7" font-size="13" text-anchor="middle">discovery calls</text><rect x="455" y="914" width="89" height="28" rx="6" fill="#18181b" stroke="#27272a"/><text x="499.5" y="932" fill="#e4e4e7" font-size="13" text-anchor="middle">pitching</text><rect x="552" y="914" width="73" height="28" rx="6" fill="#18181b" stroke="#27272a"/><text x="588.5" y="932" fill="#e4e4e7" font-size="13" text-anchor="middle">hiring</text><rect x="633" y="914" width="113" height="28" rx="6" fill="#18181b" stroke="#27272a"/><text x="689.5" y="932" fill="#e4e4e7" font-size="13" text-anchor="middle">fundraising</text><rect x="754" y="914" width="170" height="28" rx="6" fill="#18181b" stroke="#27272a"/><text x="839" y="932" fill="#e4e4e7" font-size="13" text-anchor="middle">short-form content</text>
  </g>
</svg>
